<svg xmlns="http://www.w3.org/2000/svg" viewBox="0 0 1600 200" preserveAspectRatio="xMidYMid slice"><defs><pattern id="seng" width="150" height="75.0" patternUnits="userSpaceOnUse"><g fill="none" stroke="#F4EEE8" stroke-opacity="0.55" stroke-width="3"><circle cx="0" cy="75.0" r="75.0"/><circle cx="0" cy="75.0" r="56.25"/><circle cx="0" cy="75.0" r="37.5"/><circle cx="0" cy="75.0" r="18.75"/><circle cx="75.0" cy="75.0" r="75.0"/><circle cx="75.0" cy="75.0" r="56.25"/><circle cx="75.0" cy="75.0" r="37.5"/><circle cx="75.0" cy="75.0" r="18.75"/><circle cx="150" cy="75.0" r="75.0"/><circle cx="150" cy="75.0" r="56.25"/><circle cx="150" cy="75.0" r="37.5"/><circle cx="150" cy="75.0" r="18.75"/></g></pattern></defs><rect width="1600" height="200" fill="#BE9CC1"/><rect width="1600" height="200" fill="url(#seng)"/><circle cx="800" cy="100" r="82" fill="#F4EEE8"/><path transform="translate(732.84,147.24) scale(0.12618,-0.12618)" d="M359.48046875 449.489990234375H752.65966796875L807.93994140625 517.34033203125Q807.93994140625 517.34033203125 817.989990234375 509.5552978515625Q828.0400390625 501.770263671875 844.1201171875 489.72021484375Q860.2001953125 477.670166015625 877.5352783203125 463.610107421875Q894.870361328125 449.550048828125 909.4404296875 436.510009765625Q905.4404296875 421 881.910400390625 421H359.48046875ZM588.469970703125 449.489990234375H679.90087890625V87.670166015625Q679.90087890625 84.16015625 659.710693359375 73.590087890625Q639.5205078125 63.02001953125 604.16015625 63.02001953125H588.469970703125ZM326.590087890625 638.730224609375 441.0810546875 599.389892578125Q439.571044921875 594.369873046875 433.051025390625 591.6148681640625Q426.531005859375 588.85986328125 417.490966796875 586.85986328125V441.080078125Q417.490966796875 398.080078125 412.470947265625 348.06005859375Q407.450927734375 298.0400390625 390.380859375 246.510009765625Q373.310791015625 194.97998046875 338.4156494140625 147.2249755859375Q303.5205078125 99.469970703125 244.2802734375 60.510009765625L233.34033203125 72.97998046875Q275.750244140625 128.510009765625 295.4451904296875 191.050048828125Q315.14013671875 253.590087890625 320.8651123046875 318.1201171875Q326.590087890625 382.650146484375 326.590087890625 443.1201171875ZM728.61962890625 697.38037109375 826.970458984375 610.73974609375Q818.950439453125 603.7197265625 804.6453857421875 603.19970703125Q790.34033203125 602.6796875 770.22021484375 610.189697265625Q719.810302734375 599.65966796875 653.6253662109375 590.9146728515625Q587.4404296875 582.169677734375 515.50048828125 576.69970703125Q443.560546875 571.229736328125 375.62060546875 570.269775390625L372.150634765625 585.189697265625Q434.50048828125 597.77978515625 501.810302734375 616.89990234375Q569.1201171875 636.02001953125 629.1949462890625 657.150146484375Q689.269775390625 678.2802734375 728.61962890625 697.38037109375ZM99.249755859375 760.14013671875V806.54052734375L209.80078125 760.14013671875H196.78076171875V-57.0400390625Q196.78076171875 -60.06005859375 186.9356689453125 -66.8551025390625Q177.090576171875 -73.650146484375 159.410400390625 -79.4451904296875Q141.730224609375 -85.240234375 116.469970703125 -85.240234375H99.249755859375ZM164.050537109375 760.14013671875H767.929443359375L826.269775390625 834.090576171875Q826.269775390625 834.090576171875 837.329833984375 825.7955322265625Q848.389892578125 817.50048828125 864.97998046875 804.1854248046875Q881.570068359375 790.870361328125 900.170166015625 776.0452880859375Q918.770263671875 761.22021484375 933.850341796875 747.16015625Q929.850341796875 731.16015625 906.810302734375 731.16015625H164.050537109375ZM155.890380859375 15.8798828125H790.3193359375L852.149658203125 93.3203125Q852.149658203125 93.3203125 863.709716796875 84.5252685546875Q875.269775390625 75.730224609375 892.6148681640625 61.9151611328125Q909.9599609375 48.10009765625 929.56005859375 32.530029296875Q949.16015625 16.9599609375 965.240234375 2.89990234375Q961.240234375 -13.10009765625 937.710205078125 -13.10009765625H155.890380859375Z" fill="#BE9CC1"/></svg>