<svg xmlns="http://www.w3.org/2000/svg" viewBox="0 0 1600 200" preserveAspectRatio="xMidYMid slice"><defs><pattern id="spro" width="150" height="75.0" patternUnits="userSpaceOnUse"><g fill="none" stroke="#F4EEE8" stroke-opacity="0.55" stroke-width="3"><circle cx="0" cy="75.0" r="75.0"/><circle cx="0" cy="75.0" r="56.25"/><circle cx="0" cy="75.0" r="37.5"/><circle cx="0" cy="75.0" r="18.75"/><circle cx="75.0" cy="75.0" r="75.0"/><circle cx="75.0" cy="75.0" r="56.25"/><circle cx="75.0" cy="75.0" r="37.5"/><circle cx="75.0" cy="75.0" r="18.75"/><circle cx="150" cy="75.0" r="75.0"/><circle cx="150" cy="75.0" r="56.25"/><circle cx="150" cy="75.0" r="37.5"/><circle cx="150" cy="75.0" r="18.75"/></g></pattern></defs><rect width="1600" height="200" fill="#D2386C"/><rect width="1600" height="200" fill="url(#spro)"/><circle cx="800" cy="100" r="82" fill="#F4EEE8"/><path transform="translate(737.12,147.35) scale(0.12426,-0.12426)" d="M155.489990234375 602.369873046875H901.229736328125V573.389892578125H155.489990234375ZM159.750244140625 656.1201171875H175.690185546875Q192.810302734375 604.489990234375 189.5953369140625 564.3798828125Q186.38037109375 524.269775390625 170.5753173828125 497.4447021484375Q154.770263671875 470.61962890625 133.16015625 458.109619140625Q112.02001953125 446.089599609375 87.6448974609375 449.7197265625Q63.269775390625 453.349853515625 54.759765625 475.0400390625Q48.249755859375 495.730224609375 58.849853515625 511.830322265625Q69.449951171875 527.930419921875 88.590087890625 537.46044921875Q115.590087890625 550.910400390625 138.16015625 583.5552978515625Q160.730224609375 616.2001953125 159.750244140625 656.1201171875ZM835.33935546875 602.369873046875H824.33935546875L875.6396484375 653.18017578125L965.630126953125 567.229736328125Q959.630126953125 561.7197265625 950.64013671875 559.709716796875Q941.650146484375 557.69970703125 926.630126953125 556.69970703125Q902 537.69970703125 864.31982421875 515.73974609375Q826.6396484375 493.77978515625 795.4794921875 481.309814453125L784.049560546875 488.289794921875Q793.029541015625 503.81982421875 802.7344970703125 524.329833984375Q812.439453125 544.83984375 821.3994140625 565.849853515625Q830.359375 586.85986328125 835.33935546875 602.369873046875ZM237.919921875 733.97998046875Q286.690185546875 723.570068359375 313.5552978515625 707.070068359375Q340.42041015625 690.570068359375 349.92041015625 671.7750244140625Q359.42041015625 652.97998046875 356.34033203125 637.1749267578125Q353.26025390625 621.369873046875 341.1201171875 610.83984375Q328.97998046875 600.309814453125 312.0848388671875 600.5848388671875Q295.189697265625 600.85986328125 277.5595703125 615.489990234375Q276.129638671875 645.02001953125 260.749755859375 676.2650146484375Q245.369873046875 707.510009765625 228.449951171875 727.510009765625ZM435.229736328125 744.409912109375Q483.02001953125 731.510009765625 508.9051513671875 713.030029296875Q534.790283203125 694.550048828125 543.80029296875 675.010009765625Q552.810302734375 655.469970703125 548.4852294921875 638.6749267578125Q544.16015625 621.8798828125 531.530029296875 612.0948486328125Q518.89990234375 602.309814453125 502.0047607421875 603.0848388671875Q485.109619140625 603.85986328125 467.4794921875 618.97998046875Q466.53955078125 649.510009765625 453.629638671875 682.97998046875Q440.7197265625 716.449951171875 424.77978515625 738.429931640625ZM704.2392578125 750.510009765625 825.570068359375 702.759765625Q821.570068359375 694.759765625 811.8350830078125 690.5047607421875Q802.10009765625 686.249755859375 786.080078125 688.249755859375Q759.9599609375 663.269775390625 719.27978515625 634.0447998046875Q678.599609375 604.81982421875 638.439453125 581.85986328125H620.5595703125Q643.989501953125 616.409912109375 667.1544189453125 663.7049560546875Q690.3193359375 711 704.2392578125 750.510009765625ZM790.37939453125 847.790283203125 872.429931640625 761.6796875Q864.409912109375 755.169677734375 849.6148681640625 756.169677734375Q834.81982421875 757.169677734375 814.73974609375 766.189697265625Q746.249755859375 758.209716796875 662.9847412109375 751.4847412109375Q579.7197265625 744.759765625 488.9547119140625 740.5447998046875Q398.189697265625 736.329833984375 305.4346923828125 734.369873046875Q212.6796875 732.409912109375 124.209716796875 733.9599609375L121.7197265625 752.89990234375Q206.6796875 758.449951171875 299.629638671875 768.489990234375Q392.57958984375 778.530029296875 483.2945556640625 791.590087890625Q574.009521484375 804.650146484375 653.469482421875 819.2001953125Q732.929443359375 833.750244140625 790.37939453125 847.790283203125ZM356.369873046875 247.77978515625H700.49951171875V219.289794921875H328.389892578125ZM658.769287109375 247.77978515625H646.2392578125L705.169677734375 298.14013671875L791.26025390625 215.599609375Q781.790283203125 204.5595703125 746.2802734375 202.53955078125Q675.750244140625 115.969482421875 572.4151611328125 56.7244873046875Q469.080078125 -2.5205078125 338.0 -36.9404296875Q206.919921875 -71.3603515625 51.8798828125 -84.730224609375L46.409912109375 -68.790283203125Q183.7998046875 -43.770263671875 303.4447021484375 -1.5052490234375Q423.089599609375 40.759765625 514.7344970703125 102.769775390625Q606.37939453125 164.77978515625 658.769287109375 247.77978515625ZM363.610107421875 222.229736328125Q402.630126953125 166.81982421875 464.68017578125 128.449951171875Q526.730224609375 90.080078125 606.270263671875 65.9652099609375Q685.810302734375 41.850341796875 776.80029296875 29.7354736328125Q867.790283203125 17.62060546875 964.18017578125 14.230712890625L964.2001953125 2.210693359375Q934.93994140625 -5.909423828125 917.0648193359375 -28.649658203125Q899.189697265625 -51.389892578125 892.65966796875 -85.730224609375Q765.289794921875 -67.750244140625 660.389892578125 -34.2802734375Q555.489990234375 -0.810302734375 477.06005859375 58.689697265625Q398.630126953125 118.189697265625 350.18017578125 212.269775390625ZM332.81982421875 533.02001953125 440.560546875 522.510009765625Q438.560546875 502.97998046875 412.050537109375 498.489990234375V407.2802734375Q412.54052734375 398.810302734375 417.7655029296875 396.0552978515625Q422.990478515625 393.30029296875 445.870361328125 393.30029296875H532.449951171875Q559.249755859375 393.30029296875 581.11962890625 393.30029296875Q602.989501953125 393.30029296875 610.969482421875 393.790283203125Q618.969482421875 394.790283203125 623.7445068359375 396.290283203125Q628.51953125 397.790283203125 631.53955078125 401.790283203125Q637.5595703125 409.790283203125 645.3446044921875 427.770263671875Q653.129638671875 445.750244140625 660.69970703125 469.2802734375H672.169677734375L675.189697265625 401.30029296875Q693.77978515625 394.750244140625 699.5548095703125 387.68017578125Q705.329833984375 380.610107421875 705.329833984375 369.530029296875Q705.329833984375 352.409912109375 691.0347900390625 341.829833984375Q676.73974609375 331.249755859375 637.9747314453125 326.709716796875Q599.209716796875 322.169677734375 525.7998046875 322.169677734375H427.610107421875Q386.97998046875 322.169677734375 366.419921875 328.4547119140625Q345.85986328125 334.73974609375 339.33984375 350.0948486328125Q332.81982421875 365.449951171875 332.81982421875 392.1201171875ZM258.10009765625 521.570068359375 274.0400390625 521.080078125Q287.18017578125 472.469970703125 280.0052490234375 435.85986328125Q272.830322265625 399.249755859375 254.5753173828125 375.4146728515625Q236.3203125 351.57958984375 214.240234375 341.069580078125Q192.1201171875 330.049560546875 168.010009765625 334.669677734375Q143.89990234375 339.289794921875 136.389892578125 360.97998046875Q130.369873046875 381.18017578125 141.469970703125 396.7802734375Q152.570068359375 412.38037109375 171.2001953125 420.910400390625Q200.16015625 430.870361328125 227.64013671875 458.0352783203125Q255.1201171875 485.2001953125 258.10009765625 521.570068359375ZM677.189697265625 521.510009765625Q743.429931640625 511.590087890625 784.02001953125 491.3150634765625Q824.610107421875 471.0400390625 844.60009765625 446.7149658203125Q864.590087890625 422.389892578125 867.7550048828125 400.0447998046875Q870.919921875 377.69970703125 861.27978515625 361.6396484375Q851.6396484375 345.57958984375 833.2244873046875 342.089599609375Q814.809326171875 338.599609375 791.649169921875 352.229736328125Q783.689208984375 381.289794921875 763.79931640625 411.0948486328125Q743.909423828125 440.89990234375 718.51953125 467.6949462890625Q693.129638671875 494.489990234375 668.209716796875 513.06005859375ZM436.8798828125 554.06005859375Q491.550048828125 554.690185546875 525.3651123046875 543.9552001953125Q559.18017578125 533.22021484375 575.670166015625 516.68017578125Q592.16015625 500.14013671875 594.8250732421875 482.570068359375Q597.489990234375 465 588.6148681640625 451.949951171875Q579.73974609375 438.89990234375 563.599609375 434.6448974609375Q547.45947265625 430.389892578125 526.809326171875 440.489990234375Q519.869384765625 460.510009765625 503.469482421875 480.2850341796875Q487.069580078125 500.06005859375 467.4346923828125 517.080078125Q447.7998046875 534.10009765625 428.89990234375 545.1201171875ZM385.57958984375 346.570068359375 495.970458984375 292.189697265625Q488.990478515625 278.189697265625 460.990478515625 283.6396484375Q421.930419921875 234.6396484375 359.5753173828125 186.3846435546875Q297.22021484375 138.129638671875 222.090087890625 98.8946533203125Q146.9599609375 59.65966796875 67.83984375 35.73974609375L59.85986328125 49.69970703125Q126.329833984375 83.759765625 189.2998046875 132.85986328125Q252.269775390625 181.9599609375 303.9647216796875 237.7750244140625Q355.65966796875 293.590087890625 385.57958984375 346.570068359375Z" fill="#D2386C"/></svg>