<?xml version="1.0" encoding="UTF-8"?>
<svg xmlns="http://www.w3.org/2000/svg" width="1600" height="2400" viewBox="0 0 1600 2400"><defs><pattern id="seigaiha" x="0" y="0" width="260" height="130" patternUnits="userSpaceOnUse"><g fill="none" stroke="#85677B" stroke-opacity="0.16" stroke-width="2.2"><circle cx="0" cy="130" r="130"/><circle cx="0" cy="130" r="97.5"/><circle cx="0" cy="130" r="65"/><circle cx="0" cy="130" r="32.5"/><circle cx="130" cy="130" r="130"/><circle cx="130" cy="130" r="97.5"/><circle cx="130" cy="130" r="65"/><circle cx="130" cy="130" r="32.5"/><circle cx="260" cy="130" r="130"/><circle cx="260" cy="130" r="97.5"/><circle cx="260" cy="130" r="65"/><circle cx="260" cy="130" r="32.5"/></g></pattern></defs><rect width="1600" height="2400" fill="#F4EEE8"/><rect width="1600" height="2400" fill="url(#seigaiha)"/><g fill-opacity="0.45"><path transform="translate(5.00,2080.00) scale(1.18000,-1.18000)" d="M247 710H424L668 0H500L445 159H224L170 0H2ZM418 272 335 545 250 272Z" fill="#BE9CC1"/><path transform="translate(795.60,2080.00) scale(1.18000,-1.18000)" d="M68 0V710H232V0Z" fill="#BE9CC1"/></g><g fill-opacity="0.58"><path transform="translate(564.35,1771.24) scale(1.00217,-1.00217)" d="M775 74C772 77 771 80 771 84C769 111 767 137 766 164C764 172 763 179 760 187C758 194 757 201 758 209C760 249 762 289 766 329V370C768 392 762 412 750 430C717 470 674 494 623 502C619 502 616 501 612 499L593 485C581 479 570 471 560 463C551 454 543 444 535 435C525 425 516 415 507 405C499 397 493 389 488 379C483 369 482 359 486 348C485 345 483 343 480 343C469 334 458 324 448 314C438 305 440 299 454 299C457 299 460 298 463 296C465 294 465 291 462 288C444 264 427 241 409 219C407 215 405 212 403 209C407 208 411 207 414 205C425 203 436 201 447 198C456 194 465 189 475 186C477 183 478 180 478 177C463 153 449 128 436 104L432 96C434 94 437 94 440 94C455 96 468 94 480 88C487 85 494 83 501 83C523 84 545 85 567 87C575 86 582 83 589 80C596 76 602 71 607 64C615 44 629 27 647 14C654 11 660 12 666 16C684 33 704 47 727 57C734 59 741 59 748 57C755 55 760 50 764 43C765 35 763 29 759 23C737 16 715 10 692 7C666 5 641 6 615 9C584 11 552 16 521 21C502 23 484 27 466 31C440 38 415 45 391 53C380 54 369 56 359 60C292 98 233 132 184 163C180 165 179 168 180 172C185 180 192 187 200 191C209 196 217 199 227 200C233 200 240 201 246 204C257 209 268 213 279 216C289 216 299 218 308 220C318 222 326 227 333 234C333 236 334 236 335 236C347 240 352 248 348 261C327 304 299 341 261 370C243 383 228 398 216 416C211 425 210 435 213 444C217 454 222 462 230 469C237 475 246 481 255 485C264 490 274 492 284 492C287 493 291 494 294 497C301 500 309 502 316 502C339 505 349 517 346 539C325 598 286 640 229 665C226 667 222 667 219 665C201 652 184 638 167 623C165 619 165 615 166 609C168 602 170 595 172 587C174 579 174 572 174 564C173 534 168 504 160 474C155 451 149 428 144 406C136 381 141 358 158 339C174 322 190 306 208 291C221 279 226 264 224 247C218 232 208 224 192 223C179 220 167 221 155 225C131 237 114 230 104 204C99 196 96 188 96 178C95 169 98 160 104 151C113 140 123 129 135 120C197 76 264 41 337 16C356 10 377 5 397 2C422 -4 446 -9 471 -15C475 -16 480 -17 486 -19C503 -22 519 -25 535 -27C585 -34 634 -40 685 -46L763 -56C786 -60 809 -58 830 -48C833 -47 837 -46 841 -45C853 -46 861 -41 867 -30C872 -18 871 -7 862 2C837 31 808 55 775 74ZM591 159C590 159 589 158 588 158C574 163 559 164 545 161C531 157 517 153 503 147C496 145 488 143 480 142C483 148 485 155 487 161C491 177 500 185 516 185C527 185 539 187 550 190C561 193 572 193 583 190C588 194 591 198 593 203C593 208 591 214 588 219C581 231 572 241 560 249C547 257 535 264 521 270C516 271 511 271 505 269C493 264 481 260 469 256C467 255 465 255 462 255C463 257 463 259 464 262C467 268 470 275 473 281C477 288 484 291 492 290C505 287 519 288 532 291C545 296 557 303 567 313C569 318 569 325 567 331C554 349 537 362 516 370C514 371 514 372 516 373C529 389 546 400 565 407C579 410 593 412 606 411C610 409 611 406 611 402V336H607L621 212C622 201 619 190 614 181C609 171 601 164 591 159ZM367 27 330 39C329 40 329 41 328 41H333C344 38 355 34 367 30C368 30 370 29 371 29ZM876 548C873 555 868 561 862 566C847 581 832 594 815 607C802 617 787 618 772 610C765 606 756 604 747 602C742 602 737 603 731 604C735 606 740 609 744 612C764 620 774 635 772 656C771 669 766 680 758 689C742 710 725 729 708 747C689 768 668 771 644 757C600 733 556 710 513 686C505 682 499 683 494 689C485 701 474 702 462 695C429 679 400 657 376 628C375 625 375 623 376 621C386 604 397 587 410 571C414 569 418 567 422 567C427 567 431 567 436 566C444 562 451 563 457 571C458 573 459 574 461 573C467 570 473 570 479 573C484 576 489 580 492 585C499 596 505 608 509 620C514 632 514 645 512 658C511 664 513 669 519 672C543 689 571 697 602 694C618 694 622 688 612 674C596 641 574 614 547 591C541 585 535 579 529 573C523 567 516 562 508 558C446 537 389 507 338 468C333 465 328 463 323 464C313 468 306 466 300 458C293 451 287 445 280 439C278 436 276 433 276 429C279 426 282 424 285 421C288 418 292 417 295 417C321 429 347 441 373 453C383 458 393 462 403 467C420 475 436 482 453 488C463 492 473 497 482 502H491L486 497C470 474 453 452 436 430C435 428 434 425 434 423C437 423 439 424 441 425C453 433 465 441 478 449C488 456 499 462 510 467C516 469 521 473 525 479C549 497 573 515 598 531C628 550 660 554 693 544C717 536 742 529 766 522C774 522 783 521 791 520C799 518 807 515 813 509C825 498 835 499 846 511C848 511 850 512 853 512C877 514 884 526 876 548ZM405 344C412 354 418 363 424 373C431 383 435 394 437 405C436 410 435 414 434 419C428 418 424 417 420 414C393 392 379 364 376 329C373 284 371 239 369 193C368 177 371 162 379 148C387 134 396 122 408 112C413 106 418 104 425 105C429 108 432 112 434 118C432 129 431 139 428 150C426 161 420 170 411 178C388 199 378 225 381 256C381 264 382 273 383 281C388 303 396 324 405 344Z" fill="#F7CACA"/></g><path transform="translate(250.3,1660.1) scale(3.0000,3.0682)" d="M50,88 C22,66 0,45 0,26 C0,10 12,0 25,0 C37,0 46,8 50,18 C54,8 63,0 75,0 C88,0 100,10 100,26 C100,45 78,66 50,88 Z" fill="#D2386C" fill-opacity="0.16"/><g fill-opacity="0.6"><path transform="translate(328.11,1841.22) scale(0.14636,-0.14636)" d="M677 354H682C692 351 702 351 712 354C722 357 732 360 742 362C760 367 779 372 799 378C812 381 825 385 838 389C847 393 855 398 863 404C865 408 867 411 868 414C866 416 865 419 865 422C868 431 867 439 862 447C858 454 852 461 846 468C830 485 811 498 789 506C767 514 744 518 722 518C687 516 659 501 639 473C633 467 628 462 622 459C614 458 613 454 618 449C627 441 636 435 647 430C656 426 657 422 650 417C629 396 607 377 584 359C581 357 577 357 573 359C567 363 561 367 554 370C526 386 496 390 466 383C432 378 397 373 362 370C352 369 343 366 335 360C333 360 331 359 330 357C329 357 329 356 328 354C329 351 328 349 326 348C324 348 323 350 321 352C312 364 302 364 293 352C281 340 267 330 253 321C244 314 241 305 242 294C243 283 248 275 258 270C270 265 282 261 294 259C315 252 337 246 359 241C365 239 365 235 361 230C350 215 338 201 325 188C323 183 320 180 315 180L271 201C256 206 241 211 226 216C222 214 220 212 219 210C221 207 221 204 219 203C216 202 214 200 212 198C210 196 210 194 213 190C212 190 211 191 210 192C207 192 204 193 202 193C204 191 206 189 207 188C208 184 210 182 211 180C213 171 216 163 221 156C232 146 244 138 257 131C260 129 264 126 267 124C271 121 271 117 269 113C267 109 264 106 262 103C234 69 208 36 182 3C178 -1 174 -4 169 -7C164 -10 160 -14 157 -20C153 -31 147 -41 140 -50V-56H143C156 -45 169 -35 183 -25C187 -21 191 -17 196 -13C201 -9 206 -8 213 -11H216C215 -12 214 -13 213 -13C206 -19 200 -24 192 -29C191 -30 191 -31 192 -31C201 -29 210 -27 219 -24C224 -21 229 -18 234 -16C251 -12 269 -8 287 -5C289 -5 291 -4 292 -3H287C285 -3 282 -3 280 -4C278 -4 276 -4 274 -3C276 -2 277 -1 279 0C303 9 328 14 354 14C380 8 407 9 434 18C442 20 450 20 458 16C481 8 503 -1 525 -11C531 -12 536 -13 542 -14C536 -12 531 -9 525 -5L520 -2C521 -3 524 -3 526 -4H534C533 -1 531 0 528 1L485 19C482 20 479 22 478 25C481 26 485 26 488 25C497 22 506 18 515 14C521 12 528 10 535 9C529 11 523 14 518 16C515 18 512 21 508 23C512 26 517 27 521 26C540 17 559 8 577 0C591 -7 604 -13 618 -19L677 -36C679 -37 680 -38 682 -39C682 -41 681 -42 679 -42C676 -42 674 -43 673 -44C675 -45 677 -46 681 -47C685 -48 688 -49 692 -50C696 -51 698 -53 700 -56C698 -56 695 -55 692 -54C674 -50 655 -46 636 -41C632 -39 630 -39 627 -42C626 -43 624 -43 623 -42H618C619 -44 620 -46 622 -47C646 -54 670 -61 694 -66C705 -69 717 -72 729 -75C741 -80 754 -84 767 -86C786 -83 805 -79 823 -74C841 -71 844 -63 833 -50C817 -31 798 -18 773 -11C766 -11 759 -12 751 -14C744 -17 738 -19 730 -20C713 -16 696 -11 681 -3C646 14 610 31 575 49C565 51 564 56 570 63C584 82 599 100 614 117C627 130 630 144 623 159C618 169 611 177 603 185C594 192 585 198 575 203C565 208 555 209 544 208C509 200 475 191 440 184C439 182 438 180 436 179C438 176 441 174 443 173C451 174 459 175 466 176C469 176 472 174 476 172C477 168 477 164 475 161C464 147 453 134 440 122C438 119 436 118 434 119C419 129 404 139 389 150C388 153 388 156 389 158C393 165 398 172 403 177C422 190 439 205 456 220C465 227 475 229 485 228C491 226 497 225 504 225C524 221 544 219 564 218C585 216 605 218 625 224C650 231 675 235 701 237C729 240 757 242 785 243C790 245 795 248 799 252C797 257 794 260 791 264C764 275 737 287 711 300C706 302 701 306 697 310C691 317 684 319 675 317C670 317 666 317 663 317C647 323 630 328 613 334C611 335 609 336 607 337C609 338 611 338 613 339C635 343 656 349 677 354ZM225 173C223 174 223 175 223 177C225 177 226 176 228 176C230 173 233 172 235 171C252 162 268 153 284 145C286 142 287 139 287 137C286 134 284 132 281 131C280 132 279 132 278 133C259 146 242 159 225 173ZM394 93C395 90 396 86 396 83C367 56 335 35 299 21C271 10 244 2 216 -5H210C211 -4 212 -2 213 0L279 61C288 70 298 79 309 88C311 89 313 89 315 88C318 87 321 86 323 86C325 86 327 86 329 85C330 89 330 92 329 95C328 98 327 101 325 103C328 104 330 105 332 105C334 105 335 104 334 103C335 104 337 105 338 105C338 109 339 112 342 114C345 116 349 116 353 113C366 106 380 99 394 93ZM431 304C419 293 407 281 396 270C392 268 389 267 385 267C367 273 348 281 330 289C327 290 325 293 323 298C326 306 329 315 332 323C334 325 336 326 339 326C346 324 353 322 359 319C381 306 404 303 428 309H434C433 307 432 306 431 304ZM616 314C627 310 636 304 646 297C651 292 656 289 662 288C668 286 674 284 681 282C685 280 688 277 689 272C691 263 688 258 679 258C642 253 605 248 567 243C567 244 567 244 566 244C549 245 531 247 513 249C510 250 508 251 506 251C507 253 507 255 509 256L579 291C585 295 590 300 595 307C600 316 607 319 616 314ZM159 46C166 50 172 56 177 63C177 67 175 71 171 74C158 80 152 90 154 105V165C150 196 155 225 169 253C182 287 196 321 210 354C213 360 217 362 225 362C240 360 256 361 271 365C287 370 305 374 323 377C388 383 452 397 514 419C526 422 537 427 548 434L595 471C610 482 627 493 644 504C651 508 659 513 667 519C677 525 686 533 694 541C700 544 704 549 706 555C705 561 701 566 694 569C690 574 685 576 679 575C669 575 660 574 650 572C637 570 624 567 610 565C597 562 583 559 570 556C547 555 524 554 501 552C482 550 464 547 445 544C438 541 436 537 441 531C449 519 458 507 468 496C475 490 483 486 492 483C507 479 520 475 533 471C540 468 540 465 533 462C524 458 515 453 506 448C501 446 496 443 490 441C484 439 479 439 474 443C469 447 465 451 461 456C457 459 453 463 449 467C441 473 438 482 440 492C444 508 438 513 423 509C415 506 407 503 399 499C396 497 393 495 389 493C384 491 380 491 377 493C375 496 375 500 376 505C380 511 384 518 390 523C399 531 409 538 417 547C434 569 452 590 473 608C484 618 496 624 509 628C516 631 523 631 531 630C538 629 544 624 548 616C550 616 553 614 557 612C566 606 574 600 581 592C591 581 603 575 618 574C662 574 694 594 712 635C716 645 716 655 712 665C692 711 660 746 616 771C597 783 577 790 555 792C533 793 512 787 494 772C460 748 425 726 390 704C384 700 377 697 370 693C327 676 292 648 264 611C249 593 237 573 229 552C213 504 230 476 281 470C303 467 324 465 345 464C349 462 352 460 354 457L399 422C401 420 404 419 407 418C405 416 402 415 399 414C348 399 295 394 241 399C235 400 229 399 223 397C201 389 188 373 184 351C172 300 160 249 147 199C141 168 135 136 129 104C134 88 140 71 146 54C149 49 153 47 159 46ZM585 521C591 524 598 525 604 524C600 521 596 516 594 511C590 509 587 507 585 505C582 502 578 499 575 497C573 502 570 507 568 513C574 517 579 520 585 521ZM455 611C462 626 473 636 488 640C492 641 495 643 498 645L490 635C482 628 474 621 466 614C462 612 458 609 455 605Z" fill="#64BFA4"/></g><path transform="translate(128.00,300.00) scale(0.05939,-0.05939)" d="M316 710H360L660 0H606L507 234H168L69 0H14ZM493 276 338 648 180 276Z" fill="#85677B"/><path transform="translate(189.36,300.00) scale(0.05939,-0.05939)" d="M506 592Q489 611 468.0 625.5Q447 640 423.0 649.5Q399 659 371.0 664.0Q343 669 311 669Q207 669 159.5 629.5Q112 590 112 523Q112 478 133.5 451.5Q155 425 201.0 409.0Q247 393 320 378Q397 362 453.0 340.5Q509 319 539.5 282.0Q570 245 570 182Q570 135 552.0 99.5Q534 64 500.0 41.0Q466 18 419.5 6.0Q373 -6 316 -6Q261 -6 211.0 6.0Q161 18 117.0 41.0Q73 64 35 100L62 141Q84 117 111.5 98.5Q139 80 171.5 67.0Q204 54 241.0 46.5Q278 39 318 39Q411 39 463.5 73.5Q516 108 516 176Q516 223 492.0 252.0Q468 281 418.0 299.5Q368 318 293 334Q218 350 165.5 370.0Q113 390 86.5 424.0Q60 458 60 516Q60 580 91.5 624.5Q123 669 180.0 692.0Q237 715 311 715Q357 715 396.5 706.0Q436 697 469.5 678.5Q503 660 532 632Z" fill="#85677B"/><path transform="translate(228.29,300.00) scale(0.05939,-0.05939)" d="M589 664H329V0H278V664H18V710H589Z" fill="#85677B"/><path transform="translate(267.28,300.00) scale(0.05939,-0.05939)" d="M93 0V710H388Q434 710 471.5 691.0Q509 672 536.5 640.5Q564 609 579.5 570.0Q595 531 595 490Q595 437 574.0 391.0Q553 345 515.5 314.0Q478 283 428 276L605 0H546L374 268H144V0ZM144 315H393Q439 315 473.0 340.0Q507 365 525.5 405.0Q544 445 544 490Q544 536 522.5 575.5Q501 615 465.5 639.5Q430 664 386 664H144Z" fill="#85677B"/><path transform="translate(308.83,300.00) scale(0.05939,-0.05939)" d="M379 -5Q294 -5 237.0 25.0Q180 55 146.0 106.5Q112 158 97.0 222.0Q82 286 82 353V710H133V353Q133 295 145.0 239.0Q157 183 184.5 138.5Q212 94 259.5 68.0Q307 42 378 42Q450 42 497.5 69.0Q545 96 572.5 140.5Q600 185 611.5 240.5Q623 296 623 353V710H674V353Q674 282 658.5 217.5Q643 153 608.0 103.0Q573 53 517.0 24.0Q461 -5 379 -5Z" fill="#85677B"/><path transform="translate(356.73,300.00) scale(0.05939,-0.05939)" d="M44 360Q44 424 66.5 486.5Q89 549 132.0 600.5Q175 652 237.5 683.0Q300 714 380 714Q475 714 542.0 670.5Q609 627 642 559L600 535Q575 584 538.5 613.0Q502 642 460.0 654.5Q418 667 376 667Q309 667 256.5 640.0Q204 613 168.0 568.0Q132 523 113.5 468.0Q95 413 95 357Q95 294 117.0 237.5Q139 181 177.5 137.0Q216 93 267.5 67.0Q319 41 379 41Q422 41 466.5 55.5Q511 70 550.0 100.5Q589 131 613 180L657 159Q634 106 588.0 69.0Q542 32 486.0 13.0Q430 -6 375 -6Q303 -6 242.0 25.5Q181 57 136.5 109.5Q92 162 68.0 227.5Q44 293 44 360Z" fill="#85677B"/><path transform="translate(400.71,300.00) scale(0.05939,-0.05939)" d="M589 664H329V0H278V664H18V710H589Z" fill="#85677B"/><path transform="translate(439.71,300.00) scale(0.05939,-0.05939)" d="M379 -5Q294 -5 237.0 25.0Q180 55 146.0 106.5Q112 158 97.0 222.0Q82 286 82 353V710H133V353Q133 295 145.0 239.0Q157 183 184.5 138.5Q212 94 259.5 68.0Q307 42 378 42Q450 42 497.5 69.0Q545 96 572.5 140.5Q600 185 611.5 240.5Q623 296 623 353V710H674V353Q674 282 658.5 217.5Q643 153 608.0 103.0Q573 53 517.0 24.0Q461 -5 379 -5Z" fill="#85677B"/><path transform="translate(487.61,300.00) scale(0.05939,-0.05939)" d="M93 0V710H388Q434 710 471.5 691.0Q509 672 536.5 640.5Q564 609 579.5 570.0Q595 531 595 490Q595 437 574.0 391.0Q553 345 515.5 314.0Q478 283 428 276L605 0H546L374 268H144V0ZM144 315H393Q439 315 473.0 340.0Q507 365 525.5 405.0Q544 445 544 490Q544 536 522.5 575.5Q501 615 465.5 639.5Q430 664 386 664H144Z" fill="#85677B"/><path transform="translate(529.16,300.00) scale(0.05939,-0.05939)" d="M566 46V0H93V710H557V664H144V385H505V341H144V46Z" fill="#85677B"/><path transform="translate(568.51,300.00) scale(0.05939,-0.05939)" d="M93 0V710H329Q442 710 516.5 662.5Q591 615 628.5 534.5Q666 454 666 356Q666 248 625.0 168.0Q584 88 508.0 44.0Q432 0 329 0ZM615 356Q615 445 581.5 515.0Q548 585 484.5 624.5Q421 664 329 664H144V46H329Q422 46 486.0 87.0Q550 128 582.5 198.5Q615 269 615 356Z" fill="#85677B"/><path transform="translate(632.12,300.00) scale(0.05939,-0.05939)" d="M365 705H415L521 447L627 705H677L552 406L701 60L973 710H1029L725 0H678L522 365L365 0H318L15 710H70L343 60L490 406Z" fill="#85677B"/><path transform="translate(697.07,300.00) scale(0.05939,-0.05939)" d="M316 710H360L660 0H606L507 234H168L69 0H14ZM493 276 338 648 180 276Z" fill="#85677B"/><path transform="translate(740.16,300.00) scale(0.05939,-0.05939)" d="M75 710 323 317 572 710H629L349 268V0H298V270L19 710Z" fill="#85677B"/><path transform="translate(799.85,300.00) scale(0.05939,-0.05939)" d="M376 -5Q302 -5 241.0 25.5Q180 56 136.0 107.0Q92 158 68.0 222.5Q44 287 44 355Q44 426 69.0 490.5Q94 555 139.5 605.5Q185 656 245.5 685.5Q306 715 377 715Q452 715 512.5 684.0Q573 653 617.0 601.0Q661 549 685.0 485.0Q709 421 709 355Q709 283 684.0 218.5Q659 154 613.5 103.5Q568 53 507.5 24.0Q447 -5 376 -5ZM95 355Q95 294 116.0 238.0Q137 182 174.5 138.0Q212 94 263.5 68.0Q315 42 377 42Q440 42 492.0 69.0Q544 96 581.0 141.0Q618 186 637.5 241.5Q657 297 657 355Q657 416 636.5 472.0Q616 528 578.0 572.0Q540 616 488.5 642.0Q437 668 377 668Q313 668 261.0 641.0Q209 614 172.5 569.0Q136 524 115.5 468.5Q95 413 95 355Z" fill="#85677B"/><path transform="translate(847.58,300.00) scale(0.05939,-0.05939)" d="M93 0V710H555V664H144V382H493V338H144V0Z" fill="#85677B"/><path transform="translate(904.12,300.00) scale(0.05939,-0.05939)" d="M365 705H415L521 447L627 705H677L552 406L701 60L973 710H1029L725 0H678L522 365L365 0H318L15 710H70L343 60L490 406Z" fill="#85677B"/><path transform="translate(969.07,300.00) scale(0.05939,-0.05939)" d="M376 -5Q302 -5 241.0 25.5Q180 56 136.0 107.0Q92 158 68.0 222.5Q44 287 44 355Q44 426 69.0 490.5Q94 555 139.5 605.5Q185 656 245.5 685.5Q306 715 377 715Q452 715 512.5 684.0Q573 653 617.0 601.0Q661 549 685.0 485.0Q709 421 709 355Q709 283 684.0 218.5Q659 154 613.5 103.5Q568 53 507.5 24.0Q447 -5 376 -5ZM95 355Q95 294 116.0 238.0Q137 182 174.5 138.0Q212 94 263.5 68.0Q315 42 377 42Q440 42 492.0 69.0Q544 96 581.0 141.0Q618 186 637.5 241.5Q657 297 657 355Q657 416 636.5 472.0Q616 528 578.0 572.0Q540 616 488.5 642.0Q437 668 377 668Q313 668 261.0 641.0Q209 614 172.5 569.0Q136 524 115.5 468.5Q95 413 95 355Z" fill="#85677B"/><path transform="translate(1016.79,300.00) scale(0.05939,-0.05939)" d="M93 0V710H388Q434 710 471.5 691.0Q509 672 536.5 640.5Q564 609 579.5 570.0Q595 531 595 490Q595 437 574.0 391.0Q553 345 515.5 314.0Q478 283 428 276L605 0H546L374 268H144V0ZM144 315H393Q439 315 473.0 340.0Q507 365 525.5 405.0Q544 445 544 490Q544 536 522.5 575.5Q501 615 465.5 639.5Q430 664 386 664H144Z" fill="#85677B"/><path transform="translate(1058.34,300.00) scale(0.05939,-0.05939)" d="M93 0V710H144V279L558 710H617L322 399L632 0H573L288 367L144 219V0Z" fill="#85677B"/><path transform="translate(1099.06,300.00) scale(0.05939,-0.05939)" d="M93 0V710H144V0Z" fill="#85677B"/><path transform="translate(1116.13,300.00) scale(0.05939,-0.05939)" d="M144 615V0H93V710H135L630 85V710H681V0H631Z" fill="#85677B"/><path transform="translate(1165.04,300.00) scale(0.05939,-0.05939)" d="M377 -5Q305 -5 244.0 26.0Q183 57 138.0 108.5Q93 160 68.5 224.5Q44 289 44 356Q44 426 68.0 490.5Q92 555 136.0 605.5Q180 656 240.0 685.5Q300 715 371 715Q477 715 542.5 671.5Q608 628 642 560L600 535Q564 605 504.5 636.5Q445 668 370 668Q307 668 256.0 641.5Q205 615 169.0 570.5Q133 526 114.0 470.0Q95 414 95 355Q95 292 117.0 236.0Q139 180 178.0 136.0Q217 92 269.0 67.0Q321 42 380 42Q449 42 510.0 75.5Q571 109 627 181V124Q521 -5 377 -5ZM616 304H455V345H660V0H616Z" fill="#85677B"/><path transform="translate(1228.89,300.00) scale(0.05939,-0.05939)" d="M365 705H415L521 447L627 705H677L552 406L701 60L973 710H1029L725 0H678L522 365L365 0H318L15 710H70L343 60L490 406Z" fill="#85677B"/><path transform="translate(1293.84,300.00) scale(0.05939,-0.05939)" d="M93 0V710H144V0Z" fill="#85677B"/><path transform="translate(1310.92,300.00) scale(0.05939,-0.05939)" d="M589 664H329V0H278V664H18V710H589Z" fill="#85677B"/><path transform="translate(1349.91,300.00) scale(0.05939,-0.05939)" d="M643 710V0H592V340H144V0H93V710H144V386H592V710Z" fill="#85677B"/><path transform="translate(1414.83,300.00) scale(0.05939,-0.05939)" d="M316 710H360L660 0H606L507 234H168L69 0H14ZM493 276 338 648 180 276Z" fill="#85677B"/><path transform="translate(1457.92,300.00) scale(0.05939,-0.05939)" d="M93 0V710H144V0Z" fill="#85677B"/><path transform="translate(128.00,720.00) scale(0.50717,-0.50717)" d="M247 710H424L668 0H500L445 159H224L170 0H2ZM418 272 335 545 250 272Z" fill="#27272A"/><path transform="translate(467.80,720.00) scale(0.50717,-0.50717)" d="M68 0V710H232V0Z" fill="#27272A"/><path transform="translate(619.95,720.00) scale(0.50717,-0.50717)" d="M54 203V347H362V203Z" fill="#27272A"/><path transform="translate(830.94,720.00) scale(0.50717,-0.50717)" d="M25 263Q25 340 55.0 401.5Q85 463 137.0 499.0Q189 535 257 535Q312 535 357.0 508.5Q402 482 425 439V730H585V178Q585 154 593.0 144.5Q601 135 619 133V0Q577 -8 551 -8Q510 -8 484.5 10.0Q459 28 453 60L450 87Q422 38 374.0 14.0Q326 -10 273 -10Q219 -10 173.5 10.5Q128 31 94.5 68.0Q61 105 43.0 155.0Q25 205 25 263ZM426 198V308Q416 335 397.5 355.0Q379 375 355.5 387.0Q332 399 308 399Q282 399 260.5 388.0Q239 377 223.0 357.5Q207 338 198.5 313.0Q190 288 190 260Q190 231 199.5 206.5Q209 182 226.0 163.5Q243 145 266.0 135.0Q289 125 316 125Q333 125 349.0 130.5Q365 136 379.5 145.0Q394 154 406.0 168.0Q418 182 426 198Z" fill="#27272A"/><path transform="translate(1162.63,720.00) scale(0.50717,-0.50717)" d="M305 -10Q238 -10 185.5 12.0Q133 34 97.0 72.0Q61 110 42.5 159.0Q24 208 24 262Q24 317 42.5 366.0Q61 415 97.0 453.0Q133 491 185.5 513.0Q238 535 305 535Q372 535 424.0 513.0Q476 491 512.0 453.0Q548 415 567.0 366.0Q586 317 586 262Q586 208 567.0 159.0Q548 110 512.0 72.0Q476 34 424.0 12.0Q372 -10 305 -10ZM188 262Q188 221 203.5 190.0Q219 159 245.0 142.0Q271 125 305 125Q338 125 364.5 142.5Q391 160 406.0 191.0Q421 222 421 262Q421 303 406.0 334.0Q391 365 364.5 382.0Q338 399 305 399Q271 399 245.0 382.0Q219 365 203.5 334.0Q188 303 188 262ZM154 621V718H458V621Z" fill="#27272A"/><path transform="translate(128.00,858.00) scale(0.09000,-0.09000)" d="M92 0 101 42H124Q146 42 165.5 46.5Q185 51 199.5 65.0Q214 79 220 109L338 664H242Q213 664 193.5 652.5Q174 641 162.0 622.5Q150 604 142 582L128 539H76L118 714H681L649 539H597Q597 543 598.0 552.0Q599 561 600.0 571.5Q601 582 601.5 590.0Q602 598 602 600Q602 626 588.0 645.0Q574 664 536 664H439L321 110Q320 104 318.5 95.5Q317 87 317 82Q317 65 326.5 56.5Q336 48 352.0 45.0Q368 42 389 42H412L403 0Z" fill="#615F5F"/><path transform="translate(183.17,858.00) scale(0.09000,-0.09000)" d="M460 -10Q416 -10 392.5 18.5Q369 47 369 90Q369 114 373.5 146.5Q378 179 388 225L405 303Q408 317 413.0 338.0Q418 359 422.0 382.0Q426 405 426 422Q426 442 417.5 461.5Q409 481 380 481Q349 481 318.0 458.0Q287 435 260.5 399.0Q234 363 215.5 324.5Q197 286 191 256L137 0H44L174 618Q179 638 181.0 652.5Q183 667 183 671Q183 691 173.5 701.0Q164 711 148.0 714.5Q132 718 113 718H105L114 760H298L259 576Q248 523 236.0 476.0Q224 429 219 410H230Q271 476 315.0 510.5Q359 545 415 545Q455 545 478.0 529.5Q501 514 511.5 489.0Q522 464 522 434Q522 409 515.5 379.5Q509 350 504 324L478 206Q472 178 468.5 151.0Q465 124 465 101Q465 78 474.5 65.5Q484 53 500 53Q516 53 531.5 59.0Q547 65 564 76L582 47Q558 27 528.5 8.5Q499 -10 460 -10Z" fill="#615F5F"/><path transform="translate(237.08,858.00) scale(0.09000,-0.09000)" d="M238 -10Q185 -10 140.5 13.0Q96 36 69.5 81.5Q43 127 43 197Q43 241 55.5 289.5Q68 338 92.0 383.5Q116 429 152.0 466.0Q188 503 235.5 524.5Q283 546 341 546Q404 546 439.0 515.5Q474 485 474 431Q474 379 436.5 333.0Q399 287 333.5 259.0Q268 231 184 231H149Q148 220 147.5 209.5Q147 199 147 189Q147 125 175.0 89.0Q203 53 257 53Q305 53 342.5 76.0Q380 99 401 125Q411 118 411 100Q411 78 392.5 52.5Q374 27 336.0 8.5Q298 -10 238 -10ZM168 277Q227 277 272.5 296.5Q318 316 344.5 350.5Q371 385 371 431Q371 465 356.0 481.5Q341 498 313 498Q285 498 260.0 478.5Q235 459 215.0 426.5Q195 394 180.5 355.0Q166 316 158 277Z" fill="#615F5F"/><path transform="translate(304.85,858.00) scale(0.09000,-0.09000)" d="M162 619Q160 640 153.5 651.5Q147 663 134.5 667.5Q122 672 102 672H89L98 714H370L361 672H338Q306 672 286.0 658.5Q266 645 266 621Q266 613 266.5 603.5Q267 594 268 587L292 267Q294 245 295.5 222.5Q297 200 297.5 178.0Q298 156 298.5 136.0Q299 116 299 98Q316 137 336.5 183.5Q357 230 381 278L591 707H663L696 274Q700 225 701.0 179.0Q702 133 701 98Q712 122 723.0 147.5Q734 173 747.0 201.5Q760 230 776 262L935 580Q944 599 949.0 612.5Q954 626 954 636Q954 655 940.5 663.5Q927 672 898 672H874L882 714H1126L1117 672H1098Q1079 672 1064.0 666.5Q1049 661 1036.0 644.0Q1023 627 1006 594L711 0H619L574 554L305 0H214Z" fill="#615F5F"/><path transform="translate(398.90,858.00) scale(0.09000,-0.09000)" d="M172 -10Q128 -10 99.0 14.0Q70 38 56.5 79.5Q43 121 43 173Q43 220 55.5 271.5Q68 323 93.0 371.5Q118 420 154.0 459.5Q190 499 237.0 522.5Q284 546 341 546Q365 546 386.5 541.5Q408 537 426.5 529.0Q445 521 458 510L502 535H534L466 215Q464 204 460.0 183.0Q456 162 453.5 140.0Q451 118 451 104Q451 79 459.5 66.0Q468 53 484 53Q501 53 519.0 60.5Q537 68 556 79L574 50Q560 37 536.0 23.0Q512 9 485.0 -0.5Q458 -10 433 -10Q397 -10 376.0 12.0Q355 34 355 73Q355 93 357.5 109.5Q360 126 365 151H359Q336 100 307.5 64.0Q279 28 245.5 9.0Q212 -10 172 -10ZM208 53Q234 53 261.5 73.0Q289 93 313.5 127.0Q338 161 357.0 203.0Q376 245 385 288L422 465Q411 483 390.0 492.0Q369 501 346 501Q306 501 274.0 478.5Q242 456 218.0 419.0Q194 382 177.5 338.0Q161 294 153.0 249.5Q145 205 145 169Q145 107 163.0 80.0Q181 53 208 53Z" fill="#615F5F"/><path transform="translate(451.01,858.00) scale(0.09000,-0.09000)" d="M-68 -240Q-93 -240 -118.0 -235.0Q-143 -230 -162 -222L-147 -172Q-135 -176 -117.5 -179.5Q-100 -183 -69 -183Q-20 -183 21.5 -165.5Q63 -148 98.0 -120.5Q133 -93 161.5 -61.5Q190 -30 212 -1L80 441Q74 461 65.5 472.5Q57 484 44.0 489.0Q31 494 11 494H1L9 536H155L233 266Q241 240 250.0 204.0Q259 168 266.5 135.0Q274 102 275 85H278Q316 143 346.5 202.0Q377 261 395.0 316.5Q413 372 413 417Q413 431 408.5 443.5Q404 456 393.5 463.5Q383 471 364 471Q364 507 384.5 526.0Q405 545 429 545Q461 545 479.0 524.0Q497 503 497 461Q497 409 475.5 346.5Q454 284 414.5 211.5Q375 139 321 57Q272 -19 230.5 -75.0Q189 -131 147.0 -167.5Q105 -204 53.5 -222.0Q2 -240 -68 -240Z" fill="#615F5F"/><path transform="translate(521.93,858.00) scale(0.09000,-0.09000)" d="M235 -10Q150 -10 96.5 41.5Q43 93 43 197Q43 241 54.5 289.5Q66 338 89.5 383.5Q113 429 148.5 466.0Q184 503 232.0 524.5Q280 546 341 546Q394 546 437.0 525.0Q480 504 505.5 458.5Q531 413 531 339Q531 296 520.0 248.5Q509 201 486.0 155.0Q463 109 428.0 72.0Q393 35 345.0 12.5Q297 -10 235 -10ZM246 41Q285 41 315.0 62.0Q345 83 366.0 117.5Q387 152 400.5 193.5Q414 235 420.5 277.5Q427 320 427 356Q427 431 401.0 463.0Q375 495 329 495Q290 495 260.0 474.0Q230 453 208.5 418.5Q187 384 173.5 342.0Q160 300 153.5 257.5Q147 215 147 179Q147 129 159.5 98.5Q172 68 194.0 54.5Q216 41 246 41Z" fill="#615F5F"/><path transform="translate(573.59,858.00) scale(0.09000,-0.09000)" d="M-82 -240Q-97 -240 -113.5 -237.5Q-130 -235 -140 -232L-131 -186Q-123 -188 -109.5 -190.5Q-96 -193 -85 -193Q-52 -193 -29.5 -174.5Q-7 -156 10.0 -115.5Q27 -75 41 -9L146 479H55L61 515L157 536L168 591Q185 677 230.5 723.5Q276 770 358 770Q422 770 454.5 749.5Q487 729 487 696Q487 663 465.5 647.0Q444 631 404 631Q404 669 394.5 696.5Q385 724 353 724Q316 724 296.0 693.5Q276 663 264 600L251 536H362L351 479H239L135 -8Q121 -75 100.5 -119.5Q80 -164 53.0 -190.5Q26 -217 -7.5 -228.5Q-41 -240 -82 -240Z" fill="#615F5F"/><path transform="translate(625.61,858.00) scale(0.09000,-0.09000)" d="M-56 0 -48 42H-29Q-9 42 4.5 48.0Q18 54 31.5 71.0Q45 88 64 120L412 714H490L585 95Q588 74 594.5 62.5Q601 51 613.0 46.5Q625 42 644 42H657L649 0H377L385 42H408Q440 42 460.0 55.5Q480 69 480 93Q480 101 479.5 110.5Q479 120 478 127L430 464Q424 508 419.5 547.0Q415 586 414 622Q404 598 392.5 575.5Q381 553 367.5 528.5Q354 504 336 473L139 134Q129 116 124.5 102.5Q120 89 120 78Q120 59 134.0 50.5Q148 42 176 42H199L191 0ZM178 239V289H504V239Z" fill="#615F5F"/><path transform="translate(689.06,858.00) scale(0.09000,-0.09000)" d="M-21 0 -13 42H0Q23 42 42.5 47.0Q62 52 77.0 67.5Q92 83 98 114L202 604Q204 610 205.0 619.0Q206 628 206 632Q206 658 186.0 665.0Q166 672 134 672H121L130 714H421L412 672H399Q377 672 357.0 667.0Q337 662 323.0 647.0Q309 632 302 600L198 110Q197 104 195.5 95.5Q194 87 194 82Q194 57 214.5 49.5Q235 42 266 42H279L270 0Z" fill="#615F5F"/><path transform="translate(722.09,858.00) scale(0.09000,-0.09000)" d="M-24 -104Q26 -93 52.0 -71.5Q78 -50 78 -20Q78 -6 68.0 2.0Q58 10 45.5 18.0Q33 26 23.0 37.5Q13 49 13 69Q13 98 31.5 113.0Q50 128 75 128Q107 128 130.0 106.5Q153 85 153 46Q153 1 133.5 -38.0Q114 -77 74.0 -105.0Q34 -133 -28 -146Z" fill="#615F5F"/><path transform="translate(128.00,976.00) scale(0.09000,-0.09000)" d="M183 -240Q110 -240 61.5 -225.0Q13 -210 -11.0 -181.0Q-35 -152 -35 -110Q-35 -68 -11.5 -39.0Q12 -10 49.5 8.0Q87 26 128 34Q109 43 94.5 61.0Q80 79 80 103Q80 135 101.0 156.5Q122 178 175 205Q142 220 123.5 250.0Q105 280 105 323Q105 358 119.0 397.0Q133 436 161.5 470.0Q190 504 234.0 525.0Q278 546 337 546Q367 546 393.5 538.5Q420 531 440 514Q460 543 487.0 564.0Q514 585 548 585Q573 585 585.5 572.0Q598 559 598 539Q598 525 592.5 510.5Q587 496 574.5 486.5Q562 477 539 477Q539 492 532.0 502.5Q525 513 511 513Q497 513 485.0 505.5Q473 498 462 490Q473 475 478.5 455.5Q484 436 484 413Q484 379 470.5 340.5Q457 302 429.0 267.5Q401 233 357.5 211.0Q314 189 255 189Q250 189 244.5 189.0Q239 189 233.5 189.5Q228 190 223 191Q201 181 176.5 166.0Q152 151 152 128Q152 112 166.5 106.0Q181 100 203 98L299 88Q373 81 413.5 49.0Q454 17 454 -43Q454 -88 437.0 -124.5Q420 -161 386.0 -186.5Q352 -212 301.5 -226.0Q251 -240 183 -240ZM187 -191Q253 -191 292.5 -174.5Q332 -158 349.5 -130.5Q367 -103 367 -71Q367 -39 345.0 -20.0Q323 -1 274 3L177 12Q143 8 113.0 -5.5Q83 -19 64.5 -43.5Q46 -68 46 -104Q46 -129 59.0 -149.0Q72 -169 103.0 -180.0Q134 -191 187 -191ZM266 237Q300 237 324.0 255.5Q348 274 363.5 302.5Q379 331 386.0 362.0Q393 393 393 418Q393 461 374.5 480.5Q356 500 324 500Q290 500 266.0 481.5Q242 463 226.5 434.5Q211 406 204.0 375.0Q197 344 197 319Q197 276 216.0 256.5Q235 237 266 237Z" fill="#615F5F"/><path transform="translate(178.04,976.00) scale(0.09000,-0.09000)" d="M128 402Q131 416 132.5 429.5Q134 443 134 447Q134 477 108.5 485.5Q83 494 54 494H46L55 536H232L211 392H221Q240 433 262.0 468.0Q284 503 315.0 524.5Q346 546 391 546Q433 546 453.0 526.5Q473 507 473 477Q473 442 453.5 421.5Q434 401 390 401Q390 437 382.0 458.5Q374 480 350 480Q324 480 297.5 453.0Q271 426 247.5 381.5Q224 337 205.0 284.5Q186 232 175 182L137 0H44Z" fill="#615F5F"/><path transform="translate(220.16,976.00) scale(0.09000,-0.09000)" d="M235 -10Q150 -10 96.5 41.5Q43 93 43 197Q43 241 54.5 289.5Q66 338 89.5 383.5Q113 429 148.5 466.0Q184 503 232.0 524.5Q280 546 341 546Q394 546 437.0 525.0Q480 504 505.5 458.5Q531 413 531 339Q531 296 520.0 248.5Q509 201 486.0 155.0Q463 109 428.0 72.0Q393 35 345.0 12.5Q297 -10 235 -10ZM246 41Q285 41 315.0 62.0Q345 83 366.0 117.5Q387 152 400.5 193.5Q414 235 420.5 277.5Q427 320 427 356Q427 431 401.0 463.0Q375 495 329 495Q290 495 260.0 474.0Q230 453 208.5 418.5Q187 384 173.5 342.0Q160 300 153.5 257.5Q147 215 147 179Q147 129 159.5 98.5Q172 68 194.0 54.5Q216 41 246 41Z" fill="#615F5F"/><path transform="translate(271.82,976.00) scale(0.09000,-0.09000)" d="M456 -10Q430 -10 411.0 3.0Q392 16 382.0 37.5Q372 59 372 85Q372 96 373.5 112.0Q375 128 377 144H369Q341 99 314.0 64.5Q287 30 254.0 10.5Q221 -9 176 -9Q137 -9 113.5 6.5Q90 22 79.5 47.5Q69 73 69 102Q69 127 75.0 157.0Q81 187 87 212L126 387Q129 401 132.0 422.0Q135 443 135 447Q135 477 114.5 485.5Q94 494 65 494H57L66 536H252L186 237Q180 210 173.0 174.0Q166 138 166 116Q166 91 176.0 73.0Q186 55 215 55Q242 55 271.0 75.5Q300 96 327.0 130.0Q354 164 374.0 205.0Q394 246 403 287L455 536H552L483 215Q481 204 477.0 183.0Q473 162 470.5 140.0Q468 118 468 104Q468 79 476.5 66.0Q485 53 501 53Q518 53 532.0 58.5Q546 64 565 75L583 46Q561 27 527.5 8.5Q494 -10 456 -10Z" fill="#615F5F"/><path transform="translate(325.73,976.00) scale(0.09000,-0.09000)" d="M460 -10Q416 -10 392.5 18.5Q369 47 369 90Q369 114 373.5 146.5Q378 179 388 225L405 303Q408 317 413.0 338.0Q418 359 422.0 382.0Q426 405 426 422Q426 442 417.5 461.5Q409 481 380 481Q349 481 318.0 458.0Q287 435 260.5 399.0Q234 363 215.5 324.5Q197 286 191 256L137 0H44L128 402Q131 416 132.5 429.5Q134 443 134 447Q134 477 113.5 485.5Q93 494 64 494H56L65 536H250L223 410H233Q274 476 316.5 510.5Q359 545 415 545Q455 545 478.0 529.5Q501 514 511.5 489.0Q522 464 522 434Q522 409 515.5 379.5Q509 350 504 324L478 206Q472 178 468.5 151.0Q465 124 465 101Q465 78 474.5 65.5Q484 53 500 53Q516 53 531.5 59.0Q547 65 564 76L582 47Q558 27 528.5 8.5Q499 -10 460 -10Z" fill="#615F5F"/><path transform="translate(379.64,976.00) scale(0.09000,-0.09000)" d="M172 -10Q128 -10 99.0 14.0Q70 38 56.5 79.5Q43 121 43 173Q43 220 55.5 271.5Q68 323 93.0 371.5Q118 420 154.0 459.5Q190 499 237.0 522.5Q284 546 341 546Q370 546 395.5 539.0Q421 532 440 521Q442 534 445.0 551.5Q448 569 450 578L460 626Q463 640 465.0 652.5Q467 665 467 671Q467 701 446.5 709.5Q426 718 397 718H389L398 760H582L466 215Q464 204 460.0 183.0Q456 162 453.5 140.0Q451 118 451 104Q451 79 459.5 66.0Q468 53 484 53Q501 53 519.0 60.5Q537 68 556 79L574 50Q560 37 536.0 23.0Q512 9 485.0 -0.5Q458 -10 433 -10Q397 -10 376.0 12.0Q355 34 355 73Q355 86 357.5 106.0Q360 126 365 151H359Q325 74 278.0 32.0Q231 -10 172 -10ZM208 53Q234 53 261.5 73.0Q289 93 313.5 127.0Q338 161 357.0 203.0Q376 245 385 288L422 465Q411 483 390.0 492.0Q369 501 346 501Q306 501 274.0 478.5Q242 456 218.0 419.0Q194 382 177.5 338.0Q161 294 153.0 249.5Q145 205 145 169Q145 107 163.0 80.0Q181 53 208 53Z" fill="#615F5F"/><path transform="translate(431.75,976.00) scale(0.09000,-0.09000)" d="M238 -10Q185 -10 140.5 13.0Q96 36 69.5 81.5Q43 127 43 197Q43 241 55.5 289.5Q68 338 92.0 383.5Q116 429 152.0 466.0Q188 503 235.5 524.5Q283 546 341 546Q404 546 439.0 515.5Q474 485 474 431Q474 379 436.5 333.0Q399 287 333.5 259.0Q268 231 184 231H149Q148 220 147.5 209.5Q147 199 147 189Q147 125 175.0 89.0Q203 53 257 53Q305 53 342.5 76.0Q380 99 401 125Q411 118 411 100Q411 78 392.5 52.5Q374 27 336.0 8.5Q298 -10 238 -10ZM168 277Q227 277 272.5 296.5Q318 316 344.5 350.5Q371 385 371 431Q371 465 356.0 481.5Q341 498 313 498Q285 498 260.0 478.5Q235 459 215.0 426.5Q195 394 180.5 355.0Q166 316 158 277Z" fill="#615F5F"/><path transform="translate(476.12,976.00) scale(0.09000,-0.09000)" d="M172 -10Q128 -10 99.0 14.0Q70 38 56.5 79.5Q43 121 43 173Q43 220 55.5 271.5Q68 323 93.0 371.5Q118 420 154.0 459.5Q190 499 237.0 522.5Q284 546 341 546Q370 546 395.5 539.0Q421 532 440 521Q442 534 445.0 551.5Q448 569 450 578L460 626Q463 640 465.0 652.5Q467 665 467 671Q467 701 446.5 709.5Q426 718 397 718H389L398 760H582L466 215Q464 204 460.0 183.0Q456 162 453.5 140.0Q451 118 451 104Q451 79 459.5 66.0Q468 53 484 53Q501 53 519.0 60.5Q537 68 556 79L574 50Q560 37 536.0 23.0Q512 9 485.0 -0.5Q458 -10 433 -10Q397 -10 376.0 12.0Q355 34 355 73Q355 86 357.5 106.0Q360 126 365 151H359Q325 74 278.0 32.0Q231 -10 172 -10ZM208 53Q234 53 261.5 73.0Q289 93 313.5 127.0Q338 161 357.0 203.0Q376 245 385 288L422 465Q411 483 390.0 492.0Q369 501 346 501Q306 501 274.0 478.5Q242 456 218.0 419.0Q194 382 177.5 338.0Q161 294 153.0 249.5Q145 205 145 169Q145 107 163.0 80.0Q181 53 208 53Z" fill="#615F5F"/><path transform="translate(551.63,976.00) scale(0.09000,-0.09000)" d="M155 -10Q115 -10 93.5 18.0Q72 46 72 85Q72 106 76.0 135.0Q80 164 85.0 193.5Q90 223 94 242L133 426Q135 434 135.5 440.5Q136 447 136 452Q136 479 119.5 486.5Q103 494 75 494H62L71 536H250L182 215Q180 204 176.0 183.0Q172 162 169.5 140.0Q167 118 167 104Q167 79 175.5 66.0Q184 53 200 53Q217 53 235.0 60.5Q253 68 272 79L290 50Q268 31 230.5 10.5Q193 -10 155 -10ZM224 636Q199 636 183.5 649.5Q168 663 168 691Q168 712 175.5 727.5Q183 743 196.5 752.0Q210 761 228 761Q252 761 268.0 747.5Q284 734 284 706Q284 680 275.0 664.5Q266 649 252.5 642.5Q239 636 224 636Z" fill="#615F5F"/><path transform="translate(578.99,976.00) scale(0.09000,-0.09000)" d="M460 -10Q416 -10 392.5 18.5Q369 47 369 90Q369 114 373.5 146.5Q378 179 388 225L405 303Q408 317 413.0 338.0Q418 359 422.0 382.0Q426 405 426 422Q426 442 417.5 461.5Q409 481 380 481Q349 481 318.0 458.0Q287 435 260.5 399.0Q234 363 215.5 324.5Q197 286 191 256L137 0H44L128 402Q131 416 132.5 429.5Q134 443 134 447Q134 477 113.5 485.5Q93 494 64 494H56L65 536H250L223 410H233Q274 476 316.5 510.5Q359 545 415 545Q455 545 478.0 529.5Q501 514 511.5 489.0Q522 464 522 434Q522 409 515.5 379.5Q509 350 504 324L478 206Q472 178 468.5 151.0Q465 124 465 101Q465 78 474.5 65.5Q484 53 500 53Q516 53 531.5 59.0Q547 65 564 76L582 47Q558 27 528.5 8.5Q499 -10 460 -10Z" fill="#615F5F"/><path transform="translate(656.30,976.00) scale(0.09000,-0.09000)" d="M126 394Q131 414 133.0 428.5Q135 443 135 447Q135 477 114.5 485.5Q94 494 65 494H57L66 536H243L219 403H224Q244 442 269.5 474.5Q295 507 329.0 526.5Q363 546 407 546Q468 546 501.0 499.5Q534 453 534 365Q534 322 522.0 271.5Q510 221 486.5 171.0Q463 121 427.5 80.0Q392 39 344.0 14.5Q296 -10 236 -10Q207 -10 182.0 -3.5Q157 3 138 13Q137 5 135.0 -9.0Q133 -23 130 -35L116 -96Q115 -102 111.0 -121.5Q107 -141 107 -152Q107 -182 128.0 -190.0Q149 -198 177 -198H190L181 -240H-7ZM233 35Q271 35 302.5 57.0Q334 79 358.0 116.0Q382 153 398.5 196.5Q415 240 423.5 284.5Q432 329 432 366Q432 395 426.5 422.0Q421 449 407.5 466.0Q394 483 369 483Q346 483 323.0 468.5Q300 454 279.5 430.0Q259 406 242.0 376.5Q225 347 213.0 317.0Q201 287 195 261L154 71Q163 60 184.0 47.5Q205 35 233 35Z" fill="#615F5F"/><path transform="translate(708.23,976.00) scale(0.09000,-0.09000)" d="M128 402Q131 416 132.5 429.5Q134 443 134 447Q134 477 108.5 485.5Q83 494 54 494H46L55 536H232L211 392H221Q240 433 262.0 468.0Q284 503 315.0 524.5Q346 546 391 546Q433 546 453.0 526.5Q473 507 473 477Q473 442 453.5 421.5Q434 401 390 401Q390 437 382.0 458.5Q374 480 350 480Q324 480 297.5 453.0Q271 426 247.5 381.5Q224 337 205.0 284.5Q186 232 175 182L137 0H44Z" fill="#615F5F"/><path transform="translate(750.35,976.00) scale(0.09000,-0.09000)" d="M172 -10Q128 -10 99.0 14.0Q70 38 56.5 79.5Q43 121 43 173Q43 220 55.5 271.5Q68 323 93.0 371.5Q118 420 154.0 459.5Q190 499 237.0 522.5Q284 546 341 546Q365 546 386.5 541.5Q408 537 426.5 529.0Q445 521 458 510L502 535H534L466 215Q464 204 460.0 183.0Q456 162 453.5 140.0Q451 118 451 104Q451 79 459.5 66.0Q468 53 484 53Q501 53 519.0 60.5Q537 68 556 79L574 50Q560 37 536.0 23.0Q512 9 485.0 -0.5Q458 -10 433 -10Q397 -10 376.0 12.0Q355 34 355 73Q355 93 357.5 109.5Q360 126 365 151H359Q336 100 307.5 64.0Q279 28 245.5 9.0Q212 -10 172 -10ZM208 53Q234 53 261.5 73.0Q289 93 313.5 127.0Q338 161 357.0 203.0Q376 245 385 288L422 465Q411 483 390.0 492.0Q369 501 346 501Q306 501 274.0 478.5Q242 456 218.0 419.0Q194 382 177.5 338.0Q161 294 153.0 249.5Q145 205 145 169Q145 107 163.0 80.0Q181 53 208 53Z" fill="#615F5F"/><path transform="translate(802.46,976.00) scale(0.09000,-0.09000)" d="M238 -10Q185 -10 140.5 13.0Q96 36 69.5 81.5Q43 127 43 197Q43 241 55.5 289.5Q68 338 92.0 383.5Q116 429 152.0 466.0Q188 503 235.5 524.5Q283 546 341 546Q391 546 423.5 532.0Q456 518 471.5 496.5Q487 475 487 450Q487 431 476.5 415.0Q466 399 446.5 389.5Q427 380 398 380Q398 428 379.5 463.0Q361 498 321 498Q289 498 262.0 476.5Q235 455 213.5 420.5Q192 386 177.5 344.5Q163 303 155.0 262.0Q147 221 147 189Q147 125 175.0 89.0Q203 53 257 53Q310 53 345.0 76.0Q380 99 401 125Q406 122 408.5 115.0Q411 108 411 100Q411 78 392.5 52.5Q374 27 336.0 8.5Q298 -10 238 -10Z" fill="#615F5F"/><path transform="translate(846.29,976.00) scale(0.09000,-0.09000)" d="M183 -10Q147 -10 123.0 3.0Q99 16 86.5 42.0Q74 68 74 107Q74 125 77.0 148.5Q80 172 84 191L145 479H69L78 519Q99 519 120.0 526.5Q141 534 161.0 550.5Q181 567 198.5 593.5Q216 620 231 659H277L251 536H372L360 479H239L178 194Q173 169 169.5 146.5Q166 124 166 108Q166 79 180.0 66.0Q194 53 219 53Q240 53 262.5 59.5Q285 66 301 75L318 38Q288 17 254.5 3.5Q221 -10 183 -10Z" fill="#615F5F"/><path transform="translate(879.41,976.00) scale(0.09000,-0.09000)" d="M155 -10Q115 -10 93.5 18.0Q72 46 72 85Q72 106 76.0 135.0Q80 164 85.0 193.5Q90 223 94 242L133 426Q135 434 135.5 440.5Q136 447 136 452Q136 479 119.5 486.5Q103 494 75 494H62L71 536H250L182 215Q180 204 176.0 183.0Q172 162 169.5 140.0Q167 118 167 104Q167 79 175.5 66.0Q184 53 200 53Q217 53 235.0 60.5Q253 68 272 79L290 50Q268 31 230.5 10.5Q193 -10 155 -10ZM224 636Q199 636 183.5 649.5Q168 663 168 691Q168 712 175.5 727.5Q183 743 196.5 752.0Q210 761 228 761Q252 761 268.0 747.5Q284 734 284 706Q284 680 275.0 664.5Q266 649 252.5 642.5Q239 636 224 636Z" fill="#615F5F"/><path transform="translate(906.77,976.00) scale(0.09000,-0.09000)" d="M238 -10Q185 -10 140.5 13.0Q96 36 69.5 81.5Q43 127 43 197Q43 241 55.5 289.5Q68 338 92.0 383.5Q116 429 152.0 466.0Q188 503 235.5 524.5Q283 546 341 546Q391 546 423.5 532.0Q456 518 471.5 496.5Q487 475 487 450Q487 431 476.5 415.0Q466 399 446.5 389.5Q427 380 398 380Q398 428 379.5 463.0Q361 498 321 498Q289 498 262.0 476.5Q235 455 213.5 420.5Q192 386 177.5 344.5Q163 303 155.0 262.0Q147 221 147 189Q147 125 175.0 89.0Q203 53 257 53Q310 53 345.0 76.0Q380 99 401 125Q406 122 408.5 115.0Q411 108 411 100Q411 78 392.5 52.5Q374 27 336.0 8.5Q298 -10 238 -10Z" fill="#615F5F"/><path transform="translate(950.60,976.00) scale(0.09000,-0.09000)" d="M238 -10Q185 -10 140.5 13.0Q96 36 69.5 81.5Q43 127 43 197Q43 241 55.5 289.5Q68 338 92.0 383.5Q116 429 152.0 466.0Q188 503 235.5 524.5Q283 546 341 546Q404 546 439.0 515.5Q474 485 474 431Q474 379 436.5 333.0Q399 287 333.5 259.0Q268 231 184 231H149Q148 220 147.5 209.5Q147 199 147 189Q147 125 175.0 89.0Q203 53 257 53Q305 53 342.5 76.0Q380 99 401 125Q411 118 411 100Q411 78 392.5 52.5Q374 27 336.0 8.5Q298 -10 238 -10ZM168 277Q227 277 272.5 296.5Q318 316 344.5 350.5Q371 385 371 431Q371 465 356.0 481.5Q341 498 313 498Q285 498 260.0 478.5Q235 459 215.0 426.5Q195 394 180.5 355.0Q166 316 158 277Z" fill="#615F5F"/><path transform="translate(1018.37,976.00) scale(0.09000,-0.09000)" d="M219 -128Q157 -101 117.5 -53.5Q78 -6 60.0 55.0Q42 116 42 186Q42 277 64.5 368.5Q87 460 132.5 540.0Q178 620 246.5 678.0Q315 736 408 760L398 715Q335 681 289.5 625.5Q244 570 214.5 503.0Q185 436 167.5 368.0Q150 300 143.0 240.0Q136 180 136 139Q136 97 144.5 55.0Q153 13 173.5 -22.5Q194 -58 229 -82Z" fill="#615F5F"/><path transform="translate(1049.51,976.00) scale(0.09000,-0.09000)" d="M309 676H829L877 736Q877 736 885.5 729.0Q894 722 907.5 711.5Q921 701 936.0 688.0Q951 675 963 663Q960 647 937 647H317ZM435 838Q481 823 507.0 802.5Q533 782 544.0 761.0Q555 740 554.0 722.5Q553 705 543.5 694.5Q534 684 519.5 682.5Q505 681 489 695Q488 729 467.5 767.5Q447 806 425 832ZM782 555H772L808 595L888 533Q883 527 872.0 521.5Q861 516 846 513V89Q846 86 837.0 80.5Q828 75 815.5 71.0Q803 67 791 67H782ZM433 424H810V394H433ZM433 291H810V262H433ZM433 152H810V122H433ZM724 840 831 812Q824 792 793 793Q772 763 740.5 727.0Q709 691 676 662H657Q669 687 681.5 718.0Q694 749 705.5 781.0Q717 813 724 840ZM399 555V587L468 555H813V525H463V83Q463 79 455.5 74.0Q448 69 436.0 64.5Q424 60 410 60H399ZM255 104Q281 74 309.5 55.5Q338 37 374.5 28.0Q411 19 459.0 15.5Q507 12 572 12Q630 12 698.5 12.0Q767 12 836.0 13.0Q905 14 965 16V2Q922 -7 915 -53Q867 -53 808.0 -53.0Q749 -53 688.0 -53.0Q627 -53 572 -53Q504 -53 453.5 -47.5Q403 -42 365.0 -27.0Q327 -12 297.5 15.0Q268 42 241 85Q221 63 194.0 37.0Q167 11 141.5 -12.5Q116 -36 95 -53Q97 -63 94.0 -68.0Q91 -73 84 -77L37 7Q64 19 101.5 38.5Q139 58 180.0 80.0Q221 102 255 122ZM255 372V107L193 68V382H46L40 412H179L217 462L304 391Q299 386 287.0 380.5Q275 375 255 372ZM88 805Q148 784 185.0 758.5Q222 733 240.0 707.5Q258 682 261.5 659.5Q265 637 256.5 622.5Q248 608 233.0 605.0Q218 602 199 615Q192 646 172.5 679.5Q153 713 127.5 744.0Q102 775 77 797ZM565 676H654Q645 656 632.5 630.0Q620 604 606.0 579.0Q592 554 579 535H547Q551 555 554.5 581.5Q558 608 561.0 633.5Q564 659 565 676Z" fill="#615F5F"/><path transform="translate(1139.51,976.00) scale(0.09000,-0.09000)" d="M-39 -91Q24 -57 69.5 -1.5Q115 54 144.5 121.0Q174 188 191.5 256.0Q209 324 216.0 384.0Q223 444 223 485Q223 528 214.5 569.5Q206 611 185.5 646.5Q165 682 130 706L140 752Q203 725 242.0 677.5Q281 630 299.0 569.0Q317 508 317 438Q317 347 294.5 255.5Q272 164 226.5 84.0Q181 4 112.5 -54.0Q44 -112 -49 -136Z" fill="#615F5F"/><rect x="128" y="1044" width="132" height="6" rx="3" fill="#D2386C"/><path transform="translate(128.00,2250.00) scale(0.10400,-0.10400)" d="M318 -13Q232 -13 177.0 16.5Q122 46 94.5 95.0Q67 144 60.5 201.5Q54 259 64 316Q78 390 114.0 449.0Q150 508 201.5 549.5Q253 591 313.0 613.5Q373 636 434 636Q475 636 516.5 627.0Q558 618 581 603Q588 598 589.0 594.0Q590 590 589 579L577 461Q576 457 571.0 457.0Q566 457 566 461Q556 539 510.0 575.5Q464 612 396 612Q333 612 281.5 579.5Q230 547 195.5 487.5Q161 428 148 346Q137 276 144.0 214.0Q151 152 174.5 104.5Q198 57 236.0 30.0Q274 3 324 3Q378 3 431.5 40.0Q485 77 534 154Q536 157 541.0 155.0Q546 153 544 150L515 40Q512 28 509.0 23.5Q506 19 497 17Q449 1 402.5 -6.0Q356 -13 318 -13Z" fill="#27272A"/><path transform="translate(188.94,2250.00) scale(0.10400,-0.10400)" d="M62 -8Q46 -8 40.5 -6.0Q35 -4 35 -1Q35 2 40.5 25.0Q46 48 50 74L150 610Q157 649 143.0 658.5Q129 668 85 646Q81 645 78.5 651.0Q76 657 80 658L217 725Q222 727 226.0 723.0Q230 719 229 717L101 9Q98 -8 62 -8ZM317 -9Q289 -9 282.0 14.0Q275 37 284 89L313 248Q323 302 315.0 328.5Q307 355 280 355Q249 355 215.0 314.5Q181 274 151.0 197.0Q121 120 101 9L87 10Q108 127 143.0 214.5Q178 302 223.0 350.5Q268 399 318 399Q361 399 375.5 368.0Q390 337 378 267L345 89Q340 59 344.5 46.5Q349 34 360 34Q372 34 387.5 46.0Q403 58 423 77Q426 81 430.5 77.0Q435 73 431 69Q399 32 372.0 11.5Q345 -9 317 -9Z" fill="#27272A"/><path transform="translate(235.54,2250.00) scale(0.10400,-0.10400)" d="M118 9 108 10Q117 57 131.0 110.0Q145 163 163.0 213.5Q181 264 202.0 305.0Q223 346 245.5 370.5Q268 395 292 395Q306 395 320.5 387.5Q335 380 344.0 367.0Q353 354 350 338Q348 325 338.5 316.0Q329 307 314 307Q299 307 290.5 315.0Q282 323 275.5 331.0Q269 339 258 339Q245 339 229.0 316.0Q213 293 196.0 256.0Q179 219 163.5 174.5Q148 130 136.0 86.5Q124 43 118 9ZM79 -8Q63 -8 58.0 -6.0Q53 -4 53 -1Q53 2 58.5 26.0Q64 50 68 74L104 271Q110 304 108.5 321.0Q107 338 101.0 345.5Q95 353 86 353Q74 353 58.5 341.5Q43 330 27 315Q24 312 20.0 316.0Q16 320 19 323Q51 360 78.0 377.5Q105 395 131 395Q150 395 160.5 384.0Q171 373 172.5 347.0Q174 321 166 276L118 9Q115 -8 79 -8Z" fill="#27272A"/><path transform="translate(271.42,2250.00) scale(0.10400,-0.10400)" d="M108 -9Q81 -9 72.5 13.5Q64 36 75 89L116 297Q127 353 99 353Q88 353 71.0 341.5Q54 330 34 309Q31 305 26.5 309.5Q22 314 26 317Q61 357 89.0 376.0Q117 395 143 395Q171 395 179.0 373.0Q187 351 177 302L136 89Q130 59 135.0 46.5Q140 34 151 34Q162 34 178.5 45.5Q195 57 214 76Q218 80 222.0 75.5Q226 71 222 68Q190 30 162.5 10.5Q135 -9 108 -9ZM172 509Q150 509 137.5 521.0Q125 533 125 556Q125 577 137.5 589.0Q150 601 172 601Q195 601 207.0 589.0Q219 577 219 556Q219 509 172 509Z" fill="#27272A"/><path transform="translate(297.10,2250.00) scale(0.10400,-0.10400)" d="M103 -11Q63 -11 34.0 8.0Q5 27 9 54Q11 70 21.5 78.0Q32 86 44 86Q59 86 67.0 75.0Q75 64 82.5 50.5Q90 37 102.5 26.0Q115 15 139 15Q163 15 177.0 28.5Q191 42 194 69Q199 100 185.0 122.5Q171 145 148.5 163.5Q126 182 104.0 200.5Q82 219 69.5 242.0Q57 265 63 297Q68 326 88.5 348.5Q109 371 138.5 383.5Q168 396 201 396Q240 396 265.0 381.0Q290 366 287 343Q284 327 273.0 319.0Q262 311 252 311Q234 311 225.5 320.5Q217 330 210.5 342.0Q204 354 193.5 363.0Q183 372 162 372Q144 372 131.0 362.0Q118 352 116 335Q111 306 124.5 284.0Q138 262 160.5 243.0Q183 224 205.5 204.5Q228 185 241.0 161.0Q254 137 249 105Q244 77 224.0 50.0Q204 23 173.0 6.0Q142 -11 103 -11Z" fill="#27272A"/><path transform="translate(353.26,2250.00) scale(0.10400,-0.10400)" d="M133 0Q130 0 130.0 6.0Q130 12 133 12Q167 12 184.5 17.0Q202 22 211.0 37.0Q220 52 225 81L306 544Q313 582 304.5 594.0Q296 606 262 606H241Q204 606 174.5 589.0Q145 572 123.0 539.5Q101 507 87 459Q86 456 80.0 457.0Q74 458 75 461Q79 474 85.5 498.0Q92 522 98.5 550.0Q105 578 111.0 604.0Q117 630 120 647Q122 650 127.5 649.5Q133 649 132 646Q130 631 145.0 628.0Q160 625 171 625Q208 624 257.5 623.0Q307 622 354 622Q414 622 455.0 623.5Q496 625 530 625Q558 625 573.5 629.5Q589 634 596 650Q598 653 603.0 652.5Q608 652 607 648Q603 633 596.5 607.0Q590 581 584.0 552.0Q578 523 573.0 498.0Q568 473 566 461Q565 457 559.5 457.5Q554 458 555 462Q563 510 556.0 541.5Q549 573 525.0 589.5Q501 606 460 606H441Q405 606 394.0 593.0Q383 580 377 542L296 81Q291 52 294.0 37.0Q297 22 313.5 17.0Q330 12 365 12Q367 12 367.0 6.0Q367 0 365 0Q341 0 312.5 1.0Q284 2 248 2Q216 2 186.0 1.0Q156 0 133 0Z" fill="#27272A"/><path transform="translate(410.78,2250.00) scale(0.10400,-0.10400)" d="M62 -8Q46 -8 40.5 -6.0Q35 -4 35 -1Q35 2 40.5 25.0Q46 48 50 74L150 610Q157 649 143.0 658.5Q129 668 85 646Q81 645 78.5 651.0Q76 657 80 658L217 725Q222 727 226.0 723.0Q230 719 229 717L101 9Q98 -8 62 -8ZM317 -9Q289 -9 282.0 14.0Q275 37 284 89L313 248Q323 302 315.0 328.5Q307 355 280 355Q249 355 215.0 314.5Q181 274 151.0 197.0Q121 120 101 9L87 10Q108 127 143.0 214.5Q178 302 223.0 350.5Q268 399 318 399Q361 399 375.5 368.0Q390 337 378 267L345 89Q340 59 344.5 46.5Q349 34 360 34Q372 34 387.5 46.0Q403 58 423 77Q426 81 430.5 77.0Q435 73 431 69Q399 32 372.0 11.5Q345 -9 317 -9Z" fill="#27272A"/><path transform="translate(457.37,2250.00) scale(0.10400,-0.10400)" d="M81 -13Q48 -13 30.5 11.0Q13 35 20 91Q28 144 55.0 198.0Q82 252 120.5 298.0Q159 344 203.0 371.5Q247 399 287 399Q306 399 325.0 392.0Q344 385 357.5 369.5Q371 354 373 328L325 357Q339 359 356.0 373.5Q373 388 381 407Q383 410 388.5 408.5Q394 407 393 405L335 89Q325 34 348 34Q359 34 375.5 46.0Q392 58 411 77Q414 80 418.0 76.0Q422 72 419 69Q387 32 360.0 11.5Q333 -9 307 -9Q280 -9 272.0 13.5Q264 36 273 89L297 229L315 246Q288 168 248.5 109.5Q209 51 165.5 19.0Q122 -13 81 -13ZM126 44Q153 44 181.0 64.5Q209 85 234.5 119.0Q260 153 278.5 193.0Q297 233 304 269Q312 309 297.5 334.5Q283 360 248 359Q215 359 182.0 331.0Q149 303 123.0 255.5Q97 208 88 147Q80 93 90.0 68.5Q100 44 126 44Z" fill="#27272A"/><path transform="translate(502.82,2250.00) scale(0.10400,-0.10400)" d="M548 -9Q520 -9 513.0 14.0Q506 37 515 89L544 248Q553 302 546.0 328.5Q539 355 514 355Q485 355 452.5 315.5Q420 276 390.5 198.5Q361 121 341 9L327 10Q347 128 381.5 216.0Q416 304 460.0 351.5Q504 399 552 399Q592 399 606.5 368.0Q621 337 608 267L576 89Q571 59 575.5 46.5Q580 34 591 34Q602 34 617.5 46.0Q633 58 653 77Q657 81 661.0 77.0Q665 73 661 69Q629 32 602.0 11.5Q575 -9 548 -9ZM81 -8Q65 -8 60.0 -6.0Q55 -4 55 -1Q55 2 60.5 24.5Q66 47 70 71L111 297Q121 353 95 353Q84 353 67.0 341.5Q50 330 29 309Q26 305 22.0 309.5Q18 314 21 317Q56 357 84.5 376.0Q113 395 140 395Q167 395 174.5 373.0Q182 351 173 302L121 9Q117 -8 81 -8ZM302 -8Q286 -8 281.0 -6.0Q276 -4 276 -1Q276 2 281.5 26.0Q287 50 291 74L324 249Q332 303 324.5 329.0Q317 355 293 355Q264 355 231.0 314.0Q198 273 169.0 196.0Q140 119 121 9L106 10Q126 127 160.5 214.5Q195 302 239.0 350.5Q283 399 332 399Q370 399 385.5 368.5Q401 338 388 268L341 9Q339 -8 302 -8Z" fill="#27272A"/><path transform="translate(1120.32,2250.00) scale(0.05400,-0.05400)" d="M503 0H453V290Q453 386 420.0 434.5Q387 483 324 483Q283 483 242.0 462.0Q201 441 171.0 404.5Q141 368 128 322V0H78V730H128V396Q160 457 217.0 493.0Q274 529 338 529Q382 529 413.0 513.0Q444 497 464.0 467.0Q484 437 493.5 395.0Q503 353 503 299Z" fill="#B565A7"/><path transform="translate(1151.42,2250.00) scale(0.05400,-0.05400)" d="M299 -10Q244 -10 197.0 11.5Q150 33 115.5 70.5Q81 108 61.5 157.5Q42 207 42 262Q42 336 75.0 396.0Q108 456 166.0 492.5Q224 529 296 529Q370 529 427.0 492.0Q484 455 517.5 394.5Q551 334 551 262Q551 256 551.0 250.0Q551 244 550 240H94Q98 181 127.0 133.0Q156 85 201.5 57.5Q247 30 301 30Q355 30 403.0 58.0Q451 86 470 130L514 118Q499 81 466.5 52.0Q434 23 390.5 6.5Q347 -10 299 -10ZM92 279H503Q499 340 471.0 387.0Q443 434 397.5 461.0Q352 488 297 488Q242 488 197.0 461.0Q152 434 124.0 387.0Q96 340 92 279Z" fill="#B565A7"/><path transform="translate(1182.90,2250.00) scale(0.05400,-0.05400)" d="M82 730H133V103Q133 67 148.0 53.5Q163 40 187 40Q203 40 220.0 43.0Q237 46 250 51L260 10Q243 4 218.0 -1.0Q193 -6 175 -6Q133 -6 107.5 19.5Q82 45 82 88Z" fill="#B565A7"/><path transform="translate(1196.89,2250.00) scale(0.05400,-0.05400)" d="M82 730H133V103Q133 67 148.0 53.5Q163 40 187 40Q203 40 220.0 43.0Q237 46 250 51L260 10Q243 4 218.0 -1.0Q193 -6 175 -6Q133 -6 107.5 19.5Q82 45 82 88Z" fill="#B565A7"/><path transform="translate(1210.87,2250.00) scale(0.05400,-0.05400)" d="M296 -10Q241 -10 194.5 11.0Q148 32 114.0 69.5Q80 107 61.0 156.0Q42 205 42 259Q42 314 61.0 362.5Q80 411 114.5 448.5Q149 486 195.5 507.5Q242 529 296 529Q350 529 396.0 507.5Q442 486 477.0 448.5Q512 411 531.0 362.5Q550 314 550 259Q550 205 531.0 156.0Q512 107 477.5 69.5Q443 32 396.5 11.0Q350 -10 296 -10ZM92 257Q92 196 119.5 145.5Q147 95 193.0 65.0Q239 35 295 35Q351 35 397.5 65.5Q444 96 471.5 147.5Q499 199 499 260Q499 321 471.5 372.0Q444 423 397.5 453.5Q351 484 296 484Q240 484 194.0 453.0Q148 422 120.0 371.0Q92 320 92 257Z" fill="#B565A7"/><path transform="translate(1242.84,2250.00) scale(0.05400,-0.05400)" d="M605 589H378V0H241V589H14V710H605Z" fill="#D2386C"/><path transform="translate(1276.27,2250.00) scale(0.05400,-0.05400)" d="M548 0H414V294Q414 355 390.5 385.0Q367 415 326 415Q302 415 275.0 401.0Q248 387 226.5 362.5Q205 338 195 306V0H61V730H195V427Q224 477 274.0 505.0Q324 533 383 533Q434 533 466.0 515.5Q498 498 516.0 468.5Q534 439 541.0 402.5Q548 366 548 327Z" fill="#D2386C"/><path transform="translate(1308.88,2250.00) scale(0.05400,-0.05400)" d="M25 155Q25 206 53.5 244.5Q82 283 133.0 304.0Q184 325 250 325Q283 325 317.0 320.0Q351 315 376 304V332Q376 382 346.5 409.0Q317 436 259 436Q216 436 177.0 421.0Q138 406 95 377L52 465Q104 499 158.5 516.0Q213 533 273 533Q385 533 447.5 477.0Q510 421 510 317V150Q510 129 517.5 120.0Q525 111 542 109V0Q524 -3 509.5 -5.0Q495 -7 485 -7Q445 -7 424.5 11.0Q404 29 399 55L396 82Q362 38 311.0 14.0Q260 -10 207 -10Q155 -10 113.5 11.5Q72 33 48.5 70.5Q25 108 25 155ZM351 128Q362 140 369.0 152.0Q376 164 376 174V227Q352 237 324.0 242.5Q296 248 271 248Q219 248 185.5 225.5Q152 203 152 166Q152 146 163.0 128.0Q174 110 195.0 99.0Q216 88 245 88Q275 88 304.0 99.5Q333 111 351 128Z" fill="#D2386C"/><path transform="translate(1339.88,2250.00) scale(0.05400,-0.05400)" d="M875 0H741V294Q741 356 719.5 385.5Q698 415 660 415Q621 415 585.5 384.5Q550 354 535 305V0H401V294Q401 357 379.5 386.0Q358 415 320 415Q281 415 245.5 385.0Q210 355 195 306V0H61V524H182V427Q212 478 262.0 505.5Q312 533 377 533Q442 533 478.5 501.0Q515 469 525 422Q557 476 606.5 504.5Q656 533 718 533Q767 533 797.5 515.5Q828 498 845.0 468.5Q862 439 868.5 402.0Q875 365 875 327Z" fill="#D2386C"/><g transform="translate(1412.2,2200.8) scale(0.0598)">
<path d="M500 104.167 C726.283 104.167 909.722 287.606 909.722 513.889 909.722 740.172 726.283 923.611 500 923.611 273.716 923.611 90.278 740.172 90.278 513.889 90.278 287.606 273.716 104.167 500 104.167 Z" fill="none" stroke="#D2386C" stroke-width="56" stroke-linejoin="round"/>
<path d="M680.239 513.889 C584.182 513.889 506.313 413.194 506.313 413.194 506.313 413.194 584.182 312.5 680.239 312.5 776.296 312.5 854.167 413.194 854.167 413.194 854.167 413.194 772.542 513.889 680.239 513.889 Z M680.239 458.965 C705.517 458.965 726.01 438.472 726.01 413.194 726.01 387.916 705.517 367.424 680.239 367.424 654.961 367.424 634.469 387.916 634.469 413.194 634.469 438.472 654.961 458.965 680.239 458.965 Z" fill="none" stroke="#B565A7" stroke-width="28" stroke-linejoin="round"/>
<path d="M515.206 896.267 C500.482 896.267 477.823 896.072 477.823 896.072 477.823 896.072 461.797 898.518 459.036 877.383 456.275 856.248 453.096 827.639 453.096 827.639 L427.981 814.982 384.663 845.939 C384.663 845.939 371.092 857.18 359.741 846.133 348.488 835.182 334.528 820.92 334.528 820.92 334.528 820.92 326.692 807.072 334.626 796.195 348.713 776.884 365.776 752.875 365.776 752.875 L353.219 728.148 C353.219 728.148 331.84 725.512 310.395 722.275 301.615 720.95 284.784 719.257 284.784 702.74 284.784 686.224 284.686 665.748 284.686 665.748 284.686 665.748 287.248 648.206 308.655 646.199 319.439 645.188 353.219 640.439 353.219 640.439 L365.971 622.041 335.501 574.242 C335.501 574.242 326.033 559.288 337.255 547.666 348.476 536.044 368.794 522.26 368.794 522.26 368.794 522.26 380.832 513.806 394.591 525.373 413.247 541.058 427.788 553.312 427.788 553.312 L453.343 540.941 459.425 491.205 C459.425 491.205 465.428 472.223 477.823 472.223 490.218 472.223 515.302 472.418 515.302 472.418 515.302 472.418 532.464 473.348 533.993 491.205 535.521 509.062 540.126 540.658 540.126 540.658 L565.048 553.312 608.852 522.162 C608.852 522.162 621.544 510.012 633.774 522.453 646.005 534.894 658.694 547.375 658.694 547.375 658.694 547.375 669.76 557.593 658.694 572.004 647.628 586.415 627.446 615.517 627.446 615.517 L640.102 640.73 689.553 646.863 C689.553 646.863 708.343 651.059 708.343 665.457 708.343 679.855 708.245 696.607 708.245 696.607 708.245 696.607 711.526 717.971 689.651 721.627 667.776 725.283 640.102 727.953 640.102 727.953 L627.544 746.644 654.899 788.017 C654.899 788.017 668.849 804.42 658.694 815.08 648.54 825.74 627.544 846.23 627.544 846.23 627.544 846.23 612.926 854.472 599.509 842.531 587.406 831.761 571.276 815.178 571.276 815.178 L540.514 827.541 533.895 877.285 C533.895 877.285 529.929 896.267 515.206 896.267 Z M496.612 746.547 C531.021 746.547 558.913 718.653 558.913 684.244 558.913 649.835 531.021 621.943 496.612 621.943 462.203 621.943 434.309 649.835 434.309 684.244 434.309 718.653 462.203 746.547 496.612 746.547 Z" fill="#B565A7"/>
<path d="M312.183 513.889 C216.126 513.889 138.258 413.194 138.258 413.194 138.258 413.194 216.126 312.5 312.183 312.5 408.24 312.5 486.111 413.194 486.111 413.194 486.111 413.194 404.486 513.889 312.183 513.889 Z M312.183 458.965 C337.461 458.965 357.955 438.472 357.955 413.194 357.955 387.916 337.461 367.424 312.183 367.424 286.905 367.424 266.414 387.916 266.414 413.194 266.414 438.472 286.905 458.965 312.183 458.965 Z" fill="none" stroke="#B565A7" stroke-width="28" stroke-linejoin="round"/></g></svg>